<svg id="Warstwa_13" data-name="Warstwa 13" xmlns="http://www.w3.org/2000/svg" xmlns:xlink="http://www.w3.org/1999/xlink" viewBox="0 0 437.13 127.84"><defs><style>.cls-1{fill:url(#Gradient_ArkTop);}.cls-2{fill:url(#Gradient_ArkTop-2);}.cls-3{fill:url(#Gradient_ArkTop-3);}.cls-4{fill:url(#Gradient_ArkTop-4);}.cls-5{fill:url(#Gradient_ArkTop-5);}.cls-6{fill:url(#Gradient_ArkTop-6);}.cls-7{fill:url(#Gradient_ArkTop-7);}.cls-8{opacity:0.35;}.cls-9{fill:url(#Gradient_ArkTop-8);}.cls-10{fill:url(#Gradient_ArkTop-9);}.cls-11{fill:url(#Gradient_ArkTop-10);}.cls-12{fill:url(#Gradient_ArkTop-11);}.cls-13{fill:url(#Gradient_ArkTop-12);}.cls-14,.cls-15,.cls-16,.cls-17,.cls-18,.cls-19,.cls-20,.cls-21,.cls-22,.cls-23,.cls-24,.cls-25,.cls-26,.cls-27,.cls-28,.cls-29,.cls-30{stroke-miterlimit:10;stroke-width:0.5px;}.cls-14{fill:url(#Gradient_ArkTop_Kopiuj);stroke:url(#Gradient_ArkTop_Kopiuj-2);}.cls-15{fill:url(#Gradient_ArkTop_Kopiuj-3);stroke:url(#Gradient_ArkTop_Kopiuj-4);}.cls-16{fill:url(#Gradient_ArkTop_Kopiuj-5);stroke:url(#Gradient_ArkTop_Kopiuj-6);}.cls-17{fill:url(#Gradient_ArkTop_Kopiuj-7);stroke:url(#Gradient_ArkTop_Kopiuj-8);}.cls-18{fill:url(#Gradient_ArkTop_Kopiuj-9);stroke:url(#Gradient_ArkTop_Kopiuj-10);}.cls-19{fill:url(#Gradient_ArkTop_Kopiuj-11);stroke:url(#Gradient_ArkTop_Kopiuj-12);}.cls-20{fill:url(#Gradient_ArkTop_Kopiuj-13);stroke:url(#Gradient_ArkTop_Kopiuj-14);}.cls-21{fill:url(#Gradient_ArkTop_Kopiuj-15);stroke:url(#Gradient_ArkTop_Kopiuj-16);}.cls-22{fill:url(#Gradient_ArkTop_Kopiuj-17);stroke:url(#Gradient_ArkTop_Kopiuj-18);}.cls-23{fill:url(#Gradient_ArkTop_Kopiuj-19);stroke:url(#Gradient_ArkTop_Kopiuj-20);}.cls-24{fill:url(#Gradient_ArkTop_Kopiuj-21);stroke:url(#Gradient_ArkTop_Kopiuj-22);}.cls-25{fill:url(#Gradient_ArkTop_Kopiuj-23);stroke:url(#Gradient_ArkTop_Kopiuj-24);}.cls-26{fill:url(#Gradient_ArkTop_Kopiuj-25);stroke:url(#Gradient_ArkTop_Kopiuj-26);}.cls-27{fill:url(#Gradient_ArkTop_Kopiuj-27);stroke:url(#Gradient_ArkTop_Kopiuj-28);}.cls-28{fill:url(#Gradient_ArkTop_Kopiuj-29);stroke:url(#Gradient_ArkTop_Kopiuj-30);}.cls-29{fill:url(#Gradient_ArkTop_Kopiuj-31);stroke:url(#Gradient_ArkTop_Kopiuj-32);}.cls-30{fill:url(#Gradient_ArkTop_Kopiuj-33);stroke:url(#Gradient_ArkTop_Kopiuj-34);}.cls-31{fill:url(#Gradient_ArkTop-13);}.cls-32{fill:url(#Gradient_ArkTop-14);}.cls-33{fill:url(#Gradient_ArkTop-15);}.cls-34{fill:url(#Gradient_ArkTop-16);}.cls-35{fill:url(#Gradient_ArkTop-17);}.cls-36{fill:url(#Gradient_ArkTop-18);}.cls-37{fill:url(#Gradient_ArkTop-19);}.cls-38{fill:url(#Gradient_ArkTop-20);}.cls-39{fill:url(#Gradient_ArkTop-21);}.cls-40{fill:url(#Gradient_ArkTop-22);}.cls-41{fill:url(#Gradient_ArkTop-23);}.cls-42{fill:url(#Gradient_ArkTop-24);}.cls-43{fill:url(#Gradient_ArkTop-25);}</style><linearGradient id="Gradient_ArkTop" x1="22.65" y1="19.22" x2="89.93" y2="19.22" gradientUnits="userSpaceOnUse"><stop offset="0" stop-color="#eeebe9"/><stop offset="0" stop-color="#eee4da"/><stop offset="0" stop-color="#efd2b3"/><stop offset="0" stop-color="#f0b574"/><stop offset="0" stop-color="#f28c1e"/><stop offset="0" stop-color="#f28c1d"/><stop offset="0.18" stop-color="#f07d1e"/><stop offset="0.52" stop-color="#ea571f"/><stop offset="0.71" stop-color="#e04d1d"/><stop offset="1" stop-color="#c93619"/></linearGradient><linearGradient id="Gradient_ArkTop-2" x1="41.59" y1="108.63" x2="108.87" y2="108.63" xlink:href="#Gradient_ArkTop"/><linearGradient id="Gradient_ArkTop-3" x1="2.8" y1="51.6" x2="55.77" y2="51.6" xlink:href="#Gradient_ArkTop"/><linearGradient id="Gradient_ArkTop-4" x1="75.75" y1="76.25" x2="128.72" y2="76.25" xlink:href="#Gradient_ArkTop"/><linearGradient id="Gradient_ArkTop-5" x1="9.47" y1="90.03" x2="47.34" y2="90.03" xlink:href="#Gradient_ArkTop"/><linearGradient id="Gradient_ArkTop-6" x1="84.18" y1="37.81" x2="122.04" y2="37.81" xlink:href="#Gradient_ArkTop"/><linearGradient id="Gradient_ArkTop-7" x1="43.85" y1="67.04" x2="65.76" y2="67.04" xlink:href="#Gradient_ArkTop"/><linearGradient id="Gradient_ArkTop-8" x1="53.92" y1="51.84" x2="81.1" y2="51.84" xlink:href="#Gradient_ArkTop"/><linearGradient id="Gradient_ArkTop-9" x1="77.92" y1="75.16" x2="87.67" y2="75.16" xlink:href="#Gradient_ArkTop"/><linearGradient id="Gradient_ArkTop-10" x1="67.06" y1="71.65" x2="70.02" y2="71.65" xlink:href="#Gradient_ArkTop"/><linearGradient id="Gradient_ArkTop-11" x1="74.6" y1="68.97" x2="86.99" y2="68.97" xlink:href="#Gradient_ArkTop"/><linearGradient id="Gradient_ArkTop-12" x1="62.88" y1="78.83" x2="77.51" y2="78.83" xlink:href="#Gradient_ArkTop"/><linearGradient id="Gradient_ArkTop_Kopiuj" x1="138.29" y1="23.87" x2="174.82" y2="23.87" xlink:href="#Gradient_ArkTop"/><linearGradient id="Gradient_ArkTop_Kopiuj-2" x1="137.92" y1="23.87" x2="175.19" y2="23.87" xlink:href="#Gradient_ArkTop"/><linearGradient id="Gradient_ArkTop_Kopiuj-3" x1="177.4" y1="24.13" x2="207.44" y2="24.13" xlink:href="#Gradient_ArkTop"/><linearGradient id="Gradient_ArkTop_Kopiuj-4" x1="177.15" y1="24.13" x2="207.98" y2="24.13" xlink:href="#Gradient_ArkTop"/><linearGradient id="Gradient_ArkTop_Kopiuj-5" x1="211" y1="24.16" x2="240.75" y2="24.16" xlink:href="#Gradient_ArkTop"/><linearGradient id="Gradient_ArkTop_Kopiuj-6" x1="210.75" y1="24.16" x2="241.29" y2="24.16" xlink:href="#Gradient_ArkTop"/><linearGradient id="Gradient_ArkTop_Kopiuj-7" x1="239.6" y1="23.87" x2="276.13" y2="23.87" xlink:href="#Gradient_ArkTop"/><linearGradient id="Gradient_ArkTop_Kopiuj-8" x1="239.23" y1="23.87" x2="276.5" y2="23.87" xlink:href="#Gradient_ArkTop"/><linearGradient id="Gradient_ArkTop_Kopiuj-9" x1="280.49" y1="24.16" x2="314.67" y2="24.16" xlink:href="#Gradient_ArkTop"/><linearGradient id="Gradient_ArkTop_Kopiuj-10" x1="280.24" y1="24.16" x2="314.92" y2="24.16" xlink:href="#Gradient_ArkTop"/><linearGradient id="Gradient_ArkTop_Kopiuj-11" x1="317.3" y1="24.16" x2="338.04" y2="24.16" xlink:href="#Gradient_ArkTop"/><linearGradient id="Gradient_ArkTop_Kopiuj-12" x1="317.05" y1="24.16" x2="338.29" y2="24.16" xlink:href="#Gradient_ArkTop"/><linearGradient id="Gradient_ArkTop_Kopiuj-13" x1="342.63" y1="24.36" x2="372.33" y2="24.36" xlink:href="#Gradient_ArkTop"/><linearGradient id="Gradient_ArkTop_Kopiuj-14" x1="342.38" y1="24.36" x2="372.58" y2="24.36" xlink:href="#Gradient_ArkTop"/><linearGradient id="Gradient_ArkTop_Kopiuj-15" x1="376.92" y1="24.1" x2="406.39" y2="24.1" xlink:href="#Gradient_ArkTop"/><linearGradient id="Gradient_ArkTop_Kopiuj-16" x1="376.65" y1="24.1" x2="406.64" y2="24.1" xlink:href="#Gradient_ArkTop"/><linearGradient id="Gradient_ArkTop_Kopiuj-17" x1="408.73" y1="24.16" x2="439.64" y2="24.16" xlink:href="#Gradient_ArkTop"/><linearGradient id="Gradient_ArkTop_Kopiuj-18" x1="408.42" y1="24.16" x2="439.93" y2="24.16" xlink:href="#Gradient_ArkTop"/><linearGradient id="Gradient_ArkTop_Kopiuj-19" x1="152.85" y1="74.69" x2="182.94" y2="74.69" xlink:href="#Gradient_ArkTop"/><linearGradient id="Gradient_ArkTop_Kopiuj-20" x1="152.6" y1="74.69" x2="183.19" y2="74.69" xlink:href="#Gradient_ArkTop"/><linearGradient id="Gradient_ArkTop_Kopiuj-21" x1="184.03" y1="74.6" x2="224.99" y2="74.6" xlink:href="#Gradient_ArkTop"/><linearGradient id="Gradient_ArkTop_Kopiuj-22" x1="183.78" y1="74.6" x2="225.24" y2="74.6" xlink:href="#Gradient_ArkTop"/><linearGradient id="Gradient_ArkTop_Kopiuj-23" x1="231.59" y1="74.6" x2="259.33" y2="74.6" xlink:href="#Gradient_ArkTop"/><linearGradient id="Gradient_ArkTop_Kopiuj-24" x1="231.34" y1="74.6" x2="259.58" y2="74.6" xlink:href="#Gradient_ArkTop"/><linearGradient id="Gradient_ArkTop_Kopiuj-25" x1="262.6" y1="74.6" x2="303.56" y2="74.6" xlink:href="#Gradient_ArkTop"/><linearGradient id="Gradient_ArkTop_Kopiuj-26" x1="262.35" y1="74.6" x2="303.81" y2="74.6" xlink:href="#Gradient_ArkTop"/><linearGradient id="Gradient_ArkTop_Kopiuj-27" x1="309.35" y1="74.63" x2="334.05" y2="74.63" xlink:href="#Gradient_ArkTop"/><linearGradient id="Gradient_ArkTop_Kopiuj-28" x1="309.1" y1="74.63" x2="334.3" y2="74.63" xlink:href="#Gradient_ArkTop"/><linearGradient id="Gradient_ArkTop_Kopiuj-29" x1="337.15" y1="74.58" x2="366.61" y2="74.58" xlink:href="#Gradient_ArkTop"/><linearGradient id="Gradient_ArkTop_Kopiuj-30" x1="336.88" y1="74.58" x2="366.86" y2="74.58" xlink:href="#Gradient_ArkTop"/><linearGradient id="Gradient_ArkTop_Kopiuj-31" x1="372.81" y1="74.63" x2="402.57" y2="74.63" xlink:href="#Gradient_ArkTop"/><linearGradient id="Gradient_ArkTop_Kopiuj-32" x1="372.56" y1="74.63" x2="403.1" y2="74.63" xlink:href="#Gradient_ArkTop"/><linearGradient id="Gradient_ArkTop_Kopiuj-33" x1="405.38" y1="74.63" x2="426.11" y2="74.63" xlink:href="#Gradient_ArkTop"/><linearGradient id="Gradient_ArkTop_Kopiuj-34" x1="405.13" y1="74.63" x2="426.36" y2="74.63" xlink:href="#Gradient_ArkTop"/><linearGradient id="Gradient_ArkTop-13" x1="170.67" y1="114.33" x2="184.13" y2="114.33" xlink:href="#Gradient_ArkTop"/><linearGradient id="Gradient_ArkTop-14" x1="185.82" y1="114.35" x2="199.72" y2="114.35" xlink:href="#Gradient_ArkTop"/><linearGradient id="Gradient_ArkTop-15" x1="201.47" y1="114.33" x2="221.33" y2="114.33" xlink:href="#Gradient_ArkTop"/><linearGradient id="Gradient_ArkTop-16" x1="221.94" y1="114.37" x2="236.54" y2="114.37" xlink:href="#Gradient_ArkTop"/><linearGradient id="Gradient_ArkTop-17" x1="236.03" y1="114.33" x2="255.89" y2="114.33" xlink:href="#Gradient_ArkTop"/><linearGradient id="Gradient_ArkTop-18" x1="268.03" y1="114.33" x2="283.71" y2="114.33" xlink:href="#Gradient_ArkTop"/><linearGradient id="Gradient_ArkTop-19" x1="295.37" y1="114.35" x2="314.37" y2="114.35" xlink:href="#Gradient_ArkTop"/><linearGradient id="Gradient_ArkTop-20" x1="316.39" y1="114.33" x2="330.96" y2="114.33" xlink:href="#Gradient_ArkTop"/><linearGradient id="Gradient_ArkTop-21" x1="330.84" y1="114.21" x2="348.56" y2="114.21" xlink:href="#Gradient_ArkTop"/><linearGradient id="Gradient_ArkTop-22" x1="350.11" y1="114.33" x2="363.57" y2="114.33" xlink:href="#Gradient_ArkTop"/><linearGradient id="Gradient_ArkTop-23" x1="366.01" y1="114.35" x2="379.91" y2="114.35" xlink:href="#Gradient_ArkTop"/><linearGradient id="Gradient_ArkTop-24" x1="381.27" y1="114.35" x2="391.33" y2="114.35" xlink:href="#Gradient_ArkTop"/><linearGradient id="Gradient_ArkTop-25" x1="391.8" y1="114.36" x2="410.55" y2="114.36" xlink:href="#Gradient_ArkTop"/></defs><title>logoSVG</title><path d="M87.31,34.69C67,22.11,47.59,15.75,29.37,15.75l-1.36,0c7.86-6,17.82-11.75,37.79-14C75.55,4.14,82.79,15.2,87.31,34.69Z" transform="translate(-2.8)"/><path d="M103.51,112.07c-7.86,6-17.82,11.75-37.79,14-9.75-2.35-17-13.42-21.51-32.91C65,106,84.89,112.41,103.51,112.07Z" transform="translate(-2.8)"/><path d="M51.22,30.64c-21.55,11.54-37,25.62-46,41.89C3.92,62.73,3.93,51.23,12,32.82,18.88,25.54,32.08,24.82,51.22,30.64Z" transform="translate(-2.8)"/><path d="M119.55,95c-6.91,7.27-20.11,8-39.25,2.17,21.55-11.54,37-25.62,46-41.89C127.6,65.12,127.6,76.62,119.55,95Z" transform="translate(-2.8)"/><path d="M42.93,120.69c-9.13-3.81-19.08-9.56-31-25.73a17.23,17.23,0,0,1-.69-4.28c-.19-5.76,2.45-12.27,7.85-19.35A95.25,95.25,0,0,1,29.67,59.88c0,.09,0,.19,0,.29-.42,13.8.83,26.4,3.72,37.44A87.74,87.74,0,0,0,42.93,120.69Z" transform="translate(-2.8)"/><path d="M101.85,68c.78-24.43-3.68-44.87-13.26-60.81,9.13,3.8,19.08,9.56,31,25.73C122.43,42.51,116.47,54.31,101.85,68Z" transform="translate(-2.8)"/><path class="cls-1" d="M89.49,36.37C84.83,14.79,76.94,2.56,66.05,0l-.14,0-.16,0C43.38,2.5,33.25,9.3,24.8,16.05l-2.15,1.72,2.74-.15C44.92,16.58,66,23.2,88.16,37.3l1.77,1.13ZM29.37,15.75l-1.36,0c7.86-6,17.82-11.75,37.79-14,9.75,2.36,17,13.42,21.51,32.91C67,22.11,47.59,15.75,29.37,15.75Z" transform="translate(-2.8)"/><path class="cls-2" d="M106.13,110.23c-19.53,1-40.65-5.59-62.77-19.69l-1.77-1.13L42,91.47c4.66,21.59,12.55,33.81,23.44,36.34l.14,0h.16c22.37-2.49,32.5-9.29,41-16l2.15-1.71ZM65.72,126.06c-9.75-2.35-17-13.42-21.51-32.91C65,106,84.89,112.41,103.51,112.07,95.65,118.08,85.69,123.82,65.72,126.06Z" transform="translate(-2.8)"/><path class="cls-3" d="M53.77,29.6c-21-6.76-35.56-6-43.19,2.13l-.1.1-.07.14c-9,20.62-8.21,32.8-6.58,43.5l.41,2.71,1.24-2.45C14.35,58.3,30.64,43.32,53.9,31.22l1.87-1ZM5.19,72.53C3.92,62.73,3.93,51.23,12,32.82c6.91-7.28,20.11-8,39.25-2.18C29.67,42.18,14.21,56.26,5.19,72.53Z" transform="translate(-2.8)"/><path class="cls-4" d="M127.7,52.38l-.41-2.71L126,52.11c-8.87,17.43-25.16,32.41-48.42,44.52l-1.87,1,2,.65q14.28,4.57,24.51,4.58,12.39,0,18.68-6.71L121,96l.07-.14C130.14,75.25,129.32,63.08,127.7,52.38ZM119.55,95c-6.91,7.27-20.11,8-39.25,2.17,21.55-11.54,37-25.62,46-41.89C127.6,65.12,127.6,76.62,119.55,95Z" transform="translate(-2.8)"/><path class="cls-5" d="M45.85,122A84.6,84.6,0,0,1,35.08,97.17C32.23,86.29,31,73.86,31.42,60.22c0-.79,0-1.59.09-2.38l.09-2.11L30,57.15A99.94,99.94,0,0,0,17.69,70.26C12,77.67,9.28,84.56,9.48,90.74a19,19,0,0,0,.8,4.87l.05.15.09.12C23.76,114,34.71,119.39,44.79,123.33l2.55,1ZM11.93,95a17.23,17.23,0,0,1-.69-4.28c-.19-5.76,2.45-12.27,7.85-19.35A95.25,95.25,0,0,1,29.67,59.88c0,.09,0,.19,0,.29-.42,13.8.83,26.4,3.72,37.44a87.74,87.74,0,0,0,9.55,23.08C33.8,116.88,23.85,111.13,11.93,95Z" transform="translate(-2.8)"/><path class="cls-6" d="M121.24,32.23l0-.14L121.1,32C107.76,13.83,96.81,8.46,86.73,4.51l-2.55-1,1.49,2.3c10.67,16.4,15.49,38,14.34,64.2l-.08,2.1,1.55-1.41C117.85,55.87,124.5,42.93,121.24,32.23ZM101.85,68c.78-24.43-3.68-44.87-13.26-60.81,9.13,3.8,19.08,9.56,31,25.73C122.43,42.51,116.47,54.31,101.85,68Z" transform="translate(-2.8)"/><path class="cls-7" d="M65.76,57.57,57.19,74a8.69,8.69,0,0,1-7.69,4.66H43.85L53.92,59.77C59.58,51.53,65.76,57.57,65.76,57.57Z" transform="translate(-2.8)"/><path class="cls-8" d="M65.76,57.57h0A12.42,12.42,0,0,0,54.4,59.41l-.48.36C59.58,51.53,65.76,57.57,65.76,57.57Z" transform="translate(-2.8)"/><path class="cls-9" d="M81.1,66H77a4.77,4.77,0,0,0-.76,0,5.14,5.14,0,0,0-1.93.7,5.28,5.28,0,0,0-1.18-.32,4.77,4.77,0,0,0-.76,0H70.28l-4.52-8.76s-6.18-6-11.84,2.2L65.62,37V49.15a2,2,0,1,0,.49,0V37Z" transform="translate(-2.8)"/><path class="cls-10" d="M87.67,78.64H82.35a9.4,9.4,0,0,1-2.86-.45l-.21-.07a9.63,9.63,0,0,1-1.36-.59V72H82.3a5.19,5.19,0,0,0,1.77-.31Z" transform="translate(-2.8)"/><path class="cls-11" d="M70,71.46a2.46,2.46,0,0,1-1.84.43,2.42,2.42,0,0,1-1.12-.52,5,5,0,0,0,1,.09Z" transform="translate(-2.8)"/><path class="cls-12" d="M87,66.4a5.12,5.12,0,0,1-3.2,4.75,5,5,0,0,1-1.94.38H77.51a4.34,4.34,0,0,0-.08-.63,5.13,5.13,0,0,0-2.83-3.62,5.18,5.18,0,0,1,2.12-.83,6,6,0,0,1,.75,0Z" transform="translate(-2.8)"/><path class="cls-13" d="M77.51,71.53h0V90.88a5.14,5.14,0,0,1-5.08-4.37V71.91H68a5,5,0,0,1-1.94-.38,5.11,5.11,0,0,1-3.19-4.75h9.51a6.33,6.33,0,0,1,.76,0,5.18,5.18,0,0,1,4.28,4.07A4.34,4.34,0,0,1,77.51,71.53Z" transform="translate(-2.8)"/><path class="cls-14" d="M163.79,32.4H149.37c-1.55,3.68-3.56,8.51-4.82,11.84h-6.26L154.43,3.51h4.25l16.14,40.73h-6.2ZM151.56,27h10l-4.94-14.19Z" transform="translate(-2.8)"/><path class="cls-15" d="M185.27,23.84h6.78a6.85,6.85,0,0,0,7.29-7c0-3.45-2.41-6.95-7.29-6.95h-8.91V44.24H177.4V4h14.65c8.73,0,13.09,6.43,13.09,12.81a12.11,12.11,0,0,1-10.39,12.29l12.69,15.11h-7.52L185.27,26.6Z" transform="translate(-2.8)"/><path class="cls-16" d="M216.74,4.09V44.24H211V4.09Zm1.09,18.61,14-18.61h7.29L223.81,24l16.94,20.22h-7.58L217.83,25.63Z" transform="translate(-2.8)"/><path class="cls-17" d="M265.1,32.4H250.68c-1.55,3.68-3.56,8.51-4.82,11.84H239.6L255.74,3.51H260l16.14,40.73h-6.21ZM252.87,27h10l-4.94-14.19Z" transform="translate(-2.8)"/><path class="cls-18" d="M294.91,4.09c13.15,0,19.76,10.05,19.76,20.1s-6.61,20.05-19.76,20.05H280.49V4.09Zm0,34.35c9.3,0,14-7.13,14-14.25s-4.71-14.3-14-14.3h-8.62V38.44Z" transform="translate(-2.8)"/><path class="cls-19" d="M338,9.83h-7.47V38.44H338v5.8H317.3v-5.8h7.47V9.83H317.3V4.09H338Z" transform="translate(-2.8)"/><path class="cls-20" d="M342.63,32.17V4.09h5.86V32.23c0,4.42,4.77,6.61,9,6.61s9-2.24,9-6.67V4.09h5.86V32.23c0,8.16-7.93,12.41-14.82,12.41C350.44,44.64,342.63,40.39,342.63,32.17Z" transform="translate(-2.8)"/><path class="cls-21" d="M399.55,14.42c-.8-3.61-4.71-5.16-8.21-5.11-2.7.06-5.69,1-7.3,3a5.3,5.3,0,0,0-1,3.73c.29,4.14,4.83,4.65,9.14,5.06,5.51.68,12.35,2.12,13.9,8.55a14.6,14.6,0,0,1,.29,2.65c0,7.75-7.7,12.23-14.94,12.23-6.2,0-13.73-3.67-14.47-10.86l-.06-1.09,5.86-.11.05.86v-.23c.41,3.73,4.94,5.69,8.68,5.69,4.31,0,9-2.41,9-6.55a6.23,6.23,0,0,0-.18-1.38c-.69-3-4.82-3.56-8.84-4-6.26-.64-13.62-2-14.25-10.4v.06A10.89,10.89,0,0,1,379.44,9c2.71-3.51,7.53-5.34,12.18-5.34,6.21,0,12.64,3.21,13.67,10.56Z" transform="translate(-2.8)"/><path class="cls-22" d="M410.46,4.09h27.22l2,3.67L416.89,39.07h22.4v5.17h-28.2L408.73,41,431.94,9.37H410.46Z" transform="translate(-2.8)"/><path class="cls-23" d="M165,94.88V60.36H152.85V54.5h30.09v5.86H170.82V94.88Z" transform="translate(-2.8)"/><path class="cls-24" d="M190,60.07a20.31,20.31,0,0,1,29,0,20.65,20.65,0,0,1,0,29.07,20.33,20.33,0,0,1-29,0,20.65,20.65,0,0,1,0-29.07Zm24.87,4.14a14.79,14.79,0,0,0-10.4-4.37,14.42,14.42,0,0,0-10.28,4.37,14.69,14.69,0,0,0,0,20.79,14.42,14.42,0,0,0,10.28,4.37,14.79,14.79,0,0,0,10.4-25.16Z" transform="translate(-2.8)"/><path class="cls-25" d="M246.29,54.5c8.67,0,13,6.72,13,13.44s-4.37,13.38-13,13.38h-8.84V94.71h-5.86V54.5Zm0,21.08c4.88,0,7.3-3.79,7.3-7.58s-2.42-7.64-7.3-7.64h-8.84V75.58Z" transform="translate(-2.8)"/><path class="cls-26" d="M268.57,60.07a20.32,20.32,0,0,1,29,0,20.65,20.65,0,0,1,0,29.07,20.34,20.34,0,0,1-29,0,20.68,20.68,0,0,1,0-29.07Zm24.88,4.14a14.81,14.81,0,0,0-10.4-4.37,14.42,14.42,0,0,0-10.28,4.37,14.69,14.69,0,0,0,0,20.79,14.42,14.42,0,0,0,10.28,4.37,14.79,14.79,0,0,0,10.4-25.16Z" transform="translate(-2.8)"/><path class="cls-27" d="M315.15,88.91h18.9v5.8h-24.7V54.56h5.8Z" transform="translate(-2.8)"/><path class="cls-28" d="M359.78,64.9c-.81-3.62-4.71-5.17-8.22-5.12-2.69.06-5.68,1-7.29,3a5.3,5.3,0,0,0-1,3.73c.29,4.14,4.83,4.65,9.14,5.06,5.51.69,12.35,2.12,13.9,8.55a14.57,14.57,0,0,1,.28,2.65c0,7.75-7.69,12.23-14.93,12.23-6.2,0-13.73-3.67-14.48-10.85l-.05-1.1L343,83l.05.86v-.23c.41,3.74,4.94,5.69,8.68,5.69,4.3,0,9-2.41,9-6.55a6.23,6.23,0,0,0-.18-1.38c-.69-3-4.82-3.56-8.84-4-6.26-.63-13.62-2-14.25-10.4v.06a10.89,10.89,0,0,1,2.18-7.64c2.7-3.51,7.53-5.34,12.18-5.34,6.21,0,12.64,3.21,13.67,10.57Z" transform="translate(-2.8)"/><path class="cls-29" d="M378.56,54.56V94.71h-5.75V54.56Zm1.09,18.61,14-18.61H401L385.62,74.49l16.95,20.22H395L379.65,76.1Z" transform="translate(-2.8)"/><path class="cls-30" d="M426.11,60.3h-7.47V88.91h7.47v5.8H405.38v-5.8h7.46V60.3h-7.46V54.56h20.73Z" transform="translate(-2.8)"/><path class="cls-31" d="M177.81,104.58c4.2,0,6.32,3.26,6.32,6.52s-2.12,6.49-6.32,6.49h-4.29v6.49h-2.85v-19.5Zm0,10.23a3.7,3.7,0,0,0,0-7.39h-4.29v7.39Z" transform="translate(-2.8)"/><path class="cls-32" d="M188.64,112.83h8.24v-8.22h2.84v19.47h-2.84v-8.47h-8.24v8.47h-2.82V104.61h2.82Z" transform="translate(-2.8)"/><path class="cls-33" d="M204.37,107.28a9.86,9.86,0,0,1,14.07,0,10,10,0,0,1,0,14.1,9.86,9.86,0,0,1-14.07,0,10,10,0,0,1,0-14.1Zm12.06,2a7.17,7.17,0,0,0-5-2.12,7,7,0,0,0-5,2.12,7.12,7.12,0,0,0,0,10.08,7,7,0,0,0,5,2.12,7.17,7.17,0,0,0,5-12.2Z" transform="translate(-2.8)"/><path class="cls-34" d="M227.84,124.17v-17h-5.9v-2.62h14.6v2.62h-5.88v17Z" transform="translate(-2.8)"/><path class="cls-35" d="M238.93,107.28a9.85,9.85,0,0,1,14.06,0,10,10,0,0,1,0,14.1,9.85,9.85,0,0,1-14.06,0,10,10,0,0,1,0-14.1Zm12.06,2a7.17,7.17,0,0,0-5-2.12,7,7,0,0,0-5,2.12,7.12,7.12,0,0,0,0,10.08,7,7,0,0,0,5,2.12,7.17,7.17,0,0,0,5-12.2Z" transform="translate(-2.8)"/><path class="cls-36" d="M278.56,109.26a3.29,3.29,0,0,0-3.26-2.06c-1.81,0-3.57,1-3.6,2.79,0,1.39.73,2.75,2.95,2.75h9.06v2.79h-1.95v3.26c0,3.15-2.37,5.38-6.58,5.46-5.07.08-7.43-3.09-7.13-6.3a4.87,4.87,0,0,1,3-3.9,4.44,4.44,0,0,1-2.1-4c0-3.67,3.21-5.6,6.39-5.6a5.73,5.73,0,0,1,5.79,4.07Zm-7.72,9c-.11,1.56,1.25,3.29,4.32,3.29,2.36,0,3.81-1.14,3.81-2.84v-3.15h-4.34C272,115.45,271,116.89,270.84,118.23Z" transform="translate(-2.8)"/><path class="cls-37" d="M311.22,111.57c-.78-3.14-3.79-4.29-6.27-4.29a7.13,7.13,0,0,0,0,14.24,6.37,6.37,0,0,0,6.13-4h-7.22v-2.81h10.51a14.08,14.08,0,0,1-.53,3.37v0a9.8,9.8,0,0,1-8.89,6.13c-5.46,0-9.58-4.12-9.58-9.86a9.5,9.5,0,0,1,9.58-9.89c3.73,0,8.25,1.92,9.28,7.1Z" transform="translate(-2.8)"/><path class="cls-38" d="M320.21,114.19h3.28a3.39,3.39,0,1,0,0-6.77h-4.31v16.66h-2.79v-19.5h7.1a6,6,0,0,1,6.36,6.21,5.86,5.86,0,0,1-5.05,6l6.16,7.33h-3.65l-7.1-8.55Z" transform="translate(-2.8)"/><path class="cls-39" d="M343.21,118.34h-7c-.75,1.79-1.73,4.13-2.34,5.74h-3l7.83-19.75h2.06l7.83,19.75h-3Zm-5.93-2.64h4.84l-2.39-6.88Z" transform="translate(-2.8)"/><path class="cls-40" d="M357.24,104.58c4.21,0,6.33,3.26,6.33,6.52s-2.12,6.49-6.33,6.49H353v6.49h-2.84v-19.5Zm0,10.23a3.7,3.7,0,0,0,0-7.39H353v7.39Z" transform="translate(-2.8)"/><path class="cls-41" d="M368.83,112.83h8.24v-8.22h2.84v19.47h-2.84v-8.47h-8.24v8.47H366V104.61h2.82Z" transform="translate(-2.8)"/><path class="cls-42" d="M391.33,107.4h-3.62v13.87h3.62v2.81H381.27v-2.81h3.62V107.4h-3.62v-2.79h10.06Z" transform="translate(-2.8)"/><path class="cls-43" d="M394.58,107.4a9.4,9.4,0,0,1,6.75-2.9,9.13,9.13,0,0,1,9.08,7.19h-2.79a6.35,6.35,0,0,0-6.29-4.41,6.66,6.66,0,0,0-4.8,2.09,7.22,7.22,0,0,0,0,10,6.71,6.71,0,0,0,11.26-2.57h2.76a9.41,9.41,0,0,1-9.22,7.44,9.28,9.28,0,0,1-6.75-2.9,10.1,10.1,0,0,1,0-13.92Z" transform="translate(-2.8)"/></svg>